<svg width="80" height="80" viewBox="0 0 189 195" fill="none" xmlns="http://www.w3.org/2000/svg">
<path d="M94.5 0C146.696 0 189 43.6465 189 97.5C189 151.354 146.696 195 94.5 195C42.3035 195 0 151.315 0 97.5C0 43.6465 42.3035 0 94.5 0Z" fill="#E5E4DF"/>
<path d="M94.5 30.4688C130.38 30.4688 159.469 60.4805 159.469 97.5C159.469 134.52 130.38 164.531 94.5 164.531C58.6195 164.531 29.5312 134.52 29.5312 97.5C29.5312 60.4805 58.6195 30.4688 94.5 30.4688Z" fill="#00B1FF"/>
<path d="M94.5 60.9375C114.064 60.9375 129.938 77.3145 129.938 97.5C129.938 117.686 114.064 134.062 94.5 134.062C74.9355 134.062 59.0625 117.686 59.0625 97.5C59.0625 77.3145 74.9355 60.9375 94.5 60.9375Z" fill="#2B3B47"/>
<path d="M121.041 60.9375C129.199 60.9375 135.807 67.7549 135.807 76.1719C135.807 84.5889 129.199 91.4062 121.041 91.4062C112.883 91.4062 106.276 84.5889 106.276 76.1719C106.276 67.7549 112.92 60.9375 121.041 60.9375Z" fill="#D4EDF6"/>
<path d="M128.904 89.0068C126.504 78.6094 119.86 69.9639 110.927 65.127C108.084 67.9072 106.276 71.792 106.276 76.1719C106.276 84.5889 112.883 91.4062 121.041 91.4062C123.957 91.3682 126.652 90.4922 128.904 89.0068Z" fill="#D6DBDE"/>
</svg>
